<svg width="22" height="21" viewBox="0 0 22 21" fill="none" xmlns="http://www.w3.org/2000/svg">
<path d="M20.9731 18.6875C19.6878 16.4316 17.6807 14.6738 15.275 13.6972C16.4713 12.7999 17.355 11.549 17.8009 10.1216C18.2468 8.69424 18.2323 7.16274 17.7594 5.74407C17.2865 4.3254 16.3792 3.09148 15.1661 2.21709C13.9529 1.34271 12.4954 0.872192 11 0.872192C9.5046 0.872192 8.04709 1.34271 6.83395 2.21709C5.62081 3.09148 4.71353 4.3254 4.24064 5.74407C3.76775 7.16274 3.75322 8.69424 4.1991 10.1216C4.64499 11.549 5.52868 12.7999 6.72501 13.6972C4.31931 14.6738 2.31224 16.4316 1.02689 18.6875C0.947241 18.8156 0.894158 18.9583 0.870792 19.1073C0.847427 19.2563 0.854256 19.4085 0.890875 19.5548C0.927493 19.7011 0.993152 19.8385 1.08395 19.9589C1.17475 20.0794 1.28883 20.1803 1.41941 20.2557C1.55 20.3312 1.69441 20.3796 1.84409 20.3981C1.99376 20.4166 2.14562 20.4049 2.29065 20.3635C2.43569 20.3222 2.57092 20.2521 2.68833 20.1574C2.80573 20.0628 2.90291 19.9455 2.97407 19.8125C4.67282 16.8763 7.67282 15.125 11 15.125C14.3272 15.125 17.3272 16.8772 19.0259 19.8125C19.1802 20.0605 19.4248 20.2388 19.7081 20.3097C19.9914 20.3806 20.2912 20.3386 20.5441 20.1925C20.7969 20.0464 20.9831 19.8077 21.0632 19.5268C21.1432 19.246 21.111 18.945 20.9731 18.6875ZM6.12501 8C6.12501 7.03582 6.41093 6.09329 6.9466 5.2916C7.48227 4.48991 8.24364 3.86507 9.13443 3.49609C10.0252 3.12711 11.0054 3.03057 11.9511 3.21868C12.8967 3.40678 13.7654 3.87108 14.4472 4.55286C15.1289 5.23464 15.5932 6.10328 15.7813 7.04894C15.9694 7.9946 15.8729 8.9748 15.5039 9.86559C15.1349 10.7564 14.5101 11.5177 13.7084 12.0534C12.9067 12.5891 11.9642 12.875 11 12.875C9.70754 12.8735 8.46843 12.3594 7.55451 11.4455C6.64059 10.5316 6.1265 9.29248 6.12501 8Z" fill="#374151"/>
</svg>
