<svg width="20" height="21" viewBox="0 0 20 21" fill="none" xmlns="http://www.w3.org/2000/svg">
<path d="M18.8256 8.92344L11.3256 1.42344C10.974 1.07193 10.4972 0.874466 10 0.874466C9.50283 0.874466 9.026 1.07193 8.67438 1.42344L1.17438 8.92344C0.999566 9.09719 0.860985 9.30392 0.766679 9.53163C0.672372 9.75935 0.624218 10.0035 0.62501 10.25V19.25C0.62501 19.5484 0.743536 19.8345 0.954514 20.0455C1.16549 20.2565 1.45164 20.375 1.75001 20.375H7.75001C8.04838 20.375 8.33453 20.2565 8.5455 20.0455C8.75648 19.8345 8.87501 19.5484 8.87501 19.25V14.375H11.125V19.25C11.125 19.5484 11.2435 19.8345 11.4545 20.0455C11.6655 20.2565 11.9516 20.375 12.25 20.375H18.25C18.5484 20.375 18.8345 20.2565 19.0455 20.0455C19.2565 19.8345 19.375 19.5484 19.375 19.25V10.25C19.3758 10.0035 19.3276 9.75935 19.2333 9.53163C19.139 9.30392 19.0005 9.09719 18.8256 8.92344ZM17.125 18.125H13.375V13.25C13.375 12.9516 13.2565 12.6655 13.0455 12.4545C12.8345 12.2435 12.5484 12.125 12.25 12.125H7.75001C7.45164 12.125 7.16549 12.2435 6.95451 12.4545C6.74354 12.6655 6.62501 12.9516 6.62501 13.25V18.125H2.87501V10.4047L10 3.27969L17.125 10.4047V18.125Z" fill="#374151"/>
</svg>
