<svg width="42" height="38" viewBox="0 0 42 38" fill="none" xmlns="http://www.w3.org/2000/svg">
<g opacity="0.9">
<rect x="18.75" y="15.4094" width="22.5" height="22.5" rx="11.25" fill="#42A5F5"/>
<path d="M26.0099 21.4094L25.6394 23.3578H33.3859L33.135 24.6178H25.3943L25.0181 26.5603H32.7645L32.3313 28.7828L29.2077 29.8386L26.5001 28.7828L26.6882 27.8261H24.7844L24.3341 30.1594L28.8087 31.9094L33.9673 30.1594L34.6513 26.6419L34.7881 25.9361L35.6659 21.4094H26.0099Z" fill="white"/>
</g>
<g opacity="0.9">
<rect x="0.75" y="15.4094" width="22.5" height="22.5" rx="11.25" fill="#E44D26"/>
<path fill-rule="evenodd" clip-rule="evenodd" d="M9.55189 25.1624H11.9991H12.0055H15.8095H16.3091L16.2639 25.6603L15.8282 30.5418L15.8003 30.855L12.0055 31.9071L11.9991 31.9085L11.997 31.9094L8.19872 30.855L7.93896 27.9438H9.80047L9.93237 29.4224L11.9973 29.9801L11.9991 29.9794L12.0055 29.9778L14.0671 29.4213L14.2823 27.0166H12.0055H11.9991H7.85611L7.40047 21.9068L7.356 21.4094H11.9991H12.0055H16.644L16.5997 21.9068L16.5151 22.8469L16.4779 23.2635H12.0055H11.9991H9.38241L9.55189 25.1624Z" fill="white"/>
</g>
<g opacity="0.9">
<rect x="9.75" y="0.409424" width="22.5" height="22.5" rx="11.25" fill="#E5D130"/>
<path d="M14.9901 14.3161L16.3854 13.4855C16.6546 13.9551 16.8996 14.3523 17.487 14.3523C18.0498 14.3523 18.4049 14.1367 18.4049 13.2927V7.56107H20.1185V13.3164C20.1185 15.0622 19.0782 15.857 17.5606 15.857C17.0241 15.8856 16.4914 15.7536 16.0326 15.4785C15.5739 15.2033 15.2105 14.7979 14.9906 14.3157L14.9901 14.3161ZM21.0495 14.135L22.4448 13.3401C22.6 13.6498 22.8407 13.9101 23.1395 14.0911C23.4383 14.2721 23.7829 14.3666 24.1338 14.3635C24.8439 14.3635 25.2963 14.0142 25.2963 13.5325C25.2963 12.9546 24.8312 12.7497 24.0479 12.4112L23.6209 12.2326C22.3848 11.7151 21.5646 11.0647 21.5646 9.69199C21.5646 8.4275 22.5439 7.46446 24.0737 7.46446C24.5695 7.42911 25.0648 7.53816 25.4979 7.77798C25.931 8.01781 26.2828 8.37781 26.5093 8.81305L25.1749 9.65619C25.0873 9.44014 24.9351 9.25536 24.7384 9.12635C24.5416 8.99735 24.3097 8.9302 24.0733 8.93381C23.9703 8.92355 23.8662 8.93455 23.7677 8.96609C23.6692 8.99763 23.5784 9.04903 23.5013 9.11701C23.4241 9.18498 23.3622 9.26803 23.3194 9.36087C23.2767 9.45371 23.2541 9.55429 23.2531 9.65619C23.2531 10.1621 23.5714 10.3665 24.3052 10.6796L24.7335 10.8603C26.1901 11.4744 27.0099 12.1007 27.0099 13.5092C27.0099 15.0264 25.7982 15.8575 24.1706 15.8575C22.5794 15.8575 21.5514 15.1109 21.0495 14.1354" fill="#09090A"/>
</g>
</svg>
