<svg width="20" height="20" viewBox="0 0 20 20" fill="none" xmlns="http://www.w3.org/2000/svg">
<path d="M8.625 18.25C8.625 18.5484 8.50647 18.8345 8.2955 19.0455C8.08452 19.2565 7.79837 19.375 7.5 19.375H1.5C1.20163 19.375 0.915483 19.2565 0.704505 19.0455C0.493526 18.8345 0.375 18.5484 0.375 18.25V1.75C0.375 1.45163 0.493526 1.16548 0.704505 0.954505C0.915483 0.743526 1.20163 0.625 1.5 0.625H7.5C7.79837 0.625 8.08452 0.743526 8.2955 0.954505C8.50647 1.16548 8.625 1.45163 8.625 1.75C8.625 2.04837 8.50647 2.33452 8.2955 2.5455C8.08452 2.75647 7.79837 2.875 7.5 2.875H2.625V17.125H7.5C7.79837 17.125 8.08452 17.2435 8.2955 17.4545C8.50647 17.6655 8.625 17.9516 8.625 18.25ZM18.7959 9.20406L15.0459 5.45406C14.8346 5.24272 14.5479 5.12399 14.2491 5.12399C13.9502 5.12399 13.6635 5.24272 13.4522 5.45406C13.2408 5.66541 13.1221 5.95205 13.1221 6.25094C13.1221 6.54982 13.2408 6.83647 13.4522 7.04781L15.2812 8.875H7.5C7.20163 8.875 6.91548 8.99353 6.7045 9.2045C6.49353 9.41548 6.375 9.70163 6.375 10C6.375 10.2984 6.49353 10.5845 6.7045 10.7955C6.91548 11.0065 7.20163 11.125 7.5 11.125H15.2812L13.4512 12.9541C13.2399 13.1654 13.1212 13.4521 13.1212 13.7509C13.1212 14.0498 13.2399 14.3365 13.4512 14.5478C13.6626 14.7592 13.9492 14.8779 14.2481 14.8779C14.547 14.8779 14.8337 14.7592 15.045 14.5478L18.795 10.7978C18.8999 10.6934 18.9832 10.5692 19.0401 10.4325C19.097 10.2958 19.1263 10.1492 19.1264 10.0011C19.1264 9.85307 19.0973 9.70644 19.0406 9.56966C18.9839 9.43288 18.9008 9.30864 18.7959 9.20406Z" fill="#374151"/>
</svg>
