<svg width="21" height="18" viewBox="0 0 21 18" fill="none" xmlns="http://www.w3.org/2000/svg">
<path d="M18.375 0H1.875C1.37772 0 0.900806 0.197544 0.549175 0.549175C0.197544 0.900806 0 1.37772 0 1.875V15.375C0 15.8723 0.197544 16.3492 0.549175 16.7008C0.900806 17.0525 1.37772 17.25 1.875 17.25H18.375C18.8723 17.25 19.3492 17.0525 19.7008 16.7008C20.0525 16.3492 20.25 15.8723 20.25 15.375V1.875C20.25 1.37772 20.0525 0.900806 19.7008 0.549175C19.3492 0.197544 18.8723 0 18.375 0ZM18 15H2.25V2.25H18V15ZM3.75 5.25C3.75 4.95333 3.83797 4.66332 4.0028 4.41664C4.16762 4.16997 4.40189 3.97771 4.67598 3.86418C4.95006 3.75065 5.25166 3.72094 5.54264 3.77882C5.83361 3.8367 6.10088 3.97956 6.31066 4.18934C6.52044 4.39912 6.6633 4.66639 6.72118 4.95736C6.77906 5.24834 6.74935 5.54994 6.63582 5.82402C6.52229 6.09811 6.33003 6.33238 6.08336 6.4972C5.83668 6.66203 5.54667 6.75 5.25 6.75C4.85218 6.75 4.47064 6.59196 4.18934 6.31066C3.90804 6.02936 3.75 5.64782 3.75 5.25ZM8.25 5.25C8.25 4.95333 8.33797 4.66332 8.5028 4.41664C8.66762 4.16997 8.90189 3.97771 9.17598 3.86418C9.45006 3.75065 9.75166 3.72094 10.0426 3.77882C10.3336 3.8367 10.6009 3.97956 10.8107 4.18934C11.0204 4.39912 11.1633 4.66639 11.2212 4.95736C11.2791 5.24834 11.2494 5.54994 11.1358 5.82402C11.0223 6.09811 10.83 6.33238 10.5834 6.4972C10.3367 6.66203 10.0467 6.75 9.75 6.75C9.35218 6.75 8.97064 6.59196 8.68934 6.31066C8.40804 6.02936 8.25 5.64782 8.25 5.25Z" fill="#374151"/>
</svg>
