<svg width="18" height="22" viewBox="0 0 18 22" fill="none" xmlns="http://www.w3.org/2000/svg">
<path d="M13.125 14.375C13.125 14.6734 13.0065 14.9595 12.7955 15.1705C12.5845 15.3815 12.2984 15.5 12 15.5H6C5.70163 15.5 5.41548 15.3815 5.2045 15.1705C4.99353 14.9595 4.875 14.6734 4.875 14.375C4.875 14.0766 4.99353 13.7905 5.2045 13.5795C5.41548 13.3685 5.70163 13.25 6 13.25H12C12.2984 13.25 12.5845 13.3685 12.7955 13.5795C13.0065 13.7905 13.125 14.0766 13.125 14.375ZM12 9.50001H6C5.70163 9.50001 5.41548 9.61853 5.2045 9.82951C4.99353 10.0405 4.875 10.3266 4.875 10.625C4.875 10.9234 4.99353 11.2095 5.2045 11.4205C5.41548 11.6315 5.70163 11.75 6 11.75H12C12.2984 11.75 12.5845 11.6315 12.7955 11.4205C13.0065 11.2095 13.125 10.9234 13.125 10.625C13.125 10.3266 13.0065 10.0405 12.7955 9.82951C12.5845 9.61853 12.2984 9.50001 12 9.50001ZM17.625 3.50001V19.25C17.625 19.7473 17.4275 20.2242 17.0758 20.5758C16.7242 20.9275 16.2473 21.125 15.75 21.125H2.25C1.75272 21.125 1.27581 20.9275 0.924175 20.5758C0.572544 20.2242 0.375 19.7473 0.375 19.25V3.50001C0.375 3.00272 0.572544 2.52581 0.924175 2.17418C1.27581 1.82255 1.75272 1.62501 2.25 1.62501H5.48719C5.9412 1.1509 6.48649 0.773604 7.09021 0.515849C7.69392 0.258094 8.34356 0.125214 9 0.125214C9.65644 0.125214 10.3061 0.258094 10.9098 0.515849C11.5135 0.773604 12.0588 1.1509 12.5128 1.62501H15.75C16.2473 1.62501 16.7242 1.82255 17.0758 2.17418C17.4275 2.52581 17.625 3.00272 17.625 3.50001ZM6.40219 4.62501H11.5978C11.5072 4.00064 11.1948 3.42977 10.7178 3.01691C10.2407 2.60406 9.63091 2.37683 9 2.37683C8.36909 2.37683 7.75929 2.60406 7.28223 3.01691C6.80517 3.42977 6.49275 4.00064 6.40219 4.62501ZM15.375 3.87501H13.7428C13.8303 4.24361 13.8747 4.62115 13.875 5.00001V5.75001C13.875 6.04837 13.7565 6.33452 13.5455 6.5455C13.3345 6.75648 13.0484 6.87501 12.75 6.87501H5.25C4.95163 6.87501 4.66548 6.75648 4.4545 6.5455C4.24353 6.33452 4.125 6.04837 4.125 5.75001V5.00001C4.12531 4.62115 4.16967 4.24361 4.25719 3.87501H2.625V18.875H15.375V3.87501Z" fill="#374151"/>
</svg>
